<svg id="visual" viewBox="0 0 900 300" width="900" height="300" xmlns="http://www.w3.org/2000/svg" xmlns:xlink="http://www.w3.org/1999/xlink" version="1.1"><rect x="0" y="0" width="900" height="300" fill="#3196e3"></rect><path d="M0 109L11.5 110C23 111 46 113 69 110.2C92 107.3 115 99.7 138.2 102.3C161.3 105 184.7 118 207.8 121.5C231 125 254 119 277 114.2C300 109.3 323 105.7 346 102.5C369 99.3 392 96.7 415.2 101C438.3 105.3 461.7 116.7 484.8 120.5C508 124.3 531 120.7 554 119C577 117.3 600 117.7 623 114.7C646 111.7 669 105.3 692.2 110.3C715.3 115.3 738.7 131.7 761.8 130.5C785 129.3 808 110.7 831 107.2C854 103.7 877 115.3 888.5 121.2L900 127L900 301L888.5 301C877 301 854 301 831 301C808 301 785 301 761.8 301C738.7 301 715.3 301 692.2 301C669 301 646 301 623 301C600 301 577 301 554 301C531 301 508 301 484.8 301C461.7 301 438.3 301 415.2 301C392 301 369 301 346 301C323 301 300 301 277 301C254 301 231 301 207.8 301C184.7 301 161.3 301 138.2 301C115 301 92 301 69 301C46 301 23 301 11.5 301L0 301Z" fill="#168ad8"></path><path d="M0 161L11.5 162.7C23 164.3 46 167.7 69 169.7C92 171.7 115 172.3 138.2 169C161.3 165.7 184.7 158.3 207.8 154.8C231 151.3 254 151.7 277 154.8C300 158 323 164 346 165.7C369 167.3 392 164.7 415.2 159C438.3 153.3 461.7 144.7 484.8 146.2C508 147.7 531 159.3 554 160C577 160.7 600 150.3 623 148C646 145.7 669 151.3 692.2 150.7C715.3 150 738.7 143 761.8 143.8C785 144.7 808 153.3 831 151.8C854 150.3 877 138.7 888.5 132.8L900 127L900 301L888.5 301C877 301 854 301 831 301C808 301 785 301 761.8 301C738.7 301 715.3 301 692.2 301C669 301 646 301 623 301C600 301 577 301 554 301C531 301 508 301 484.8 301C461.7 301 438.3 301 415.2 301C392 301 369 301 346 301C323 301 300 301 277 301C254 301 231 301 207.8 301C184.7 301 161.3 301 138.2 301C115 301 92 301 69 301C46 301 23 301 11.5 301L0 301Z" fill="#798eda"></path><path d="M0 179L11.5 177.2C23 175.3 46 171.7 69 170.8C92 170 115 172 138.2 171.8C161.3 171.7 184.7 169.3 207.8 171.2C231 173 254 179 277 181.3C300 183.7 323 182.3 346 179.2C369 176 392 171 415.2 170.5C438.3 170 461.7 174 484.8 170.8C508 167.7 531 157.3 554 154.7C577 152 600 157 623 165.7C646 174.3 669 186.7 692.2 190C715.3 193.3 738.7 187.7 761.8 184.3C785 181 808 180 831 176.8C854 173.7 877 168.3 888.5 165.7L900 163L900 301L888.5 301C877 301 854 301 831 301C808 301 785 301 761.8 301C738.7 301 715.3 301 692.2 301C669 301 646 301 623 301C600 301 577 301 554 301C531 301 508 301 484.8 301C461.7 301 438.3 301 415.2 301C392 301 369 301 346 301C323 301 300 301 277 301C254 301 231 301 207.8 301C184.7 301 161.3 301 138.2 301C115 301 92 301 69 301C46 301 23 301 11.5 301L0 301Z" fill="#aa93d6"></path><path d="M0 182L11.5 185C23 188 46 194 69 193.3C92 192.7 115 185.3 138.2 183.7C161.3 182 184.7 186 207.8 190.2C231 194.3 254 198.7 277 197.3C300 196 323 189 346 190.8C369 192.7 392 203.3 415.2 208.5C438.3 213.7 461.7 213.3 484.8 212.5C508 211.7 531 210.3 554 210.8C577 211.3 600 213.7 623 209.3C646 205 669 194 692.2 188.3C715.3 182.7 738.7 182.3 761.8 185.2C785 188 808 194 831 194.3C854 194.7 877 189.3 888.5 186.7L900 184L900 301L888.5 301C877 301 854 301 831 301C808 301 785 301 761.8 301C738.7 301 715.3 301 692.2 301C669 301 646 301 623 301C600 301 577 301 554 301C531 301 508 301 484.8 301C461.7 301 438.3 301 415.2 301C392 301 369 301 346 301C323 301 300 301 277 301C254 301 231 301 207.8 301C184.7 301 161.3 301 138.2 301C115 301 92 301 69 301C46 301 23 301 11.5 301L0 301Z" fill="#cc9ccf"></path><path d="M0 214L11.5 212.3C23 210.7 46 207.3 69 206.7C92 206 115 208 138.2 208.5C161.3 209 184.7 208 207.8 210.8C231 213.7 254 220.3 277 224.7C300 229 323 231 346 229C369 227 392 221 415.2 219.3C438.3 217.7 461.7 220.3 484.8 221.2C508 222 531 221 554 218C577 215 600 210 623 208C646 206 669 207 692.2 213.2C715.3 219.3 738.7 230.7 761.8 234.7C785 238.7 808 235.3 831 234.3C854 233.3 877 234.7 888.5 235.3L900 236L900 301L888.5 301C877 301 854 301 831 301C808 301 785 301 761.8 301C738.7 301 715.3 301 692.2 301C669 301 646 301 623 301C600 301 577 301 554 301C531 301 508 301 484.8 301C461.7 301 438.3 301 415.2 301C392 301 369 301 346 301C323 301 300 301 277 301C254 301 231 301 207.8 301C184.7 301 161.3 301 138.2 301C115 301 92 301 69 301C46 301 23 301 11.5 301L0 301Z" fill="#e3a8c9"></path><path d="M0 256L11.5 251.3C23 246.7 46 237.3 69 235.2C92 233 115 238 138.2 239.7C161.3 241.3 184.7 239.7 207.8 240.7C231 241.7 254 245.3 277 248.7C300 252 323 255 346 253.8C369 252.7 392 247.3 415.2 246.7C438.3 246 461.7 250 484.8 252.5C508 255 531 256 554 251.7C577 247.3 600 237.7 623 235.2C646 232.7 669 237.3 692.2 241.3C715.3 245.3 738.7 248.7 761.8 249.2C785 249.7 808 247.3 831 247.5C854 247.7 877 250.3 888.5 251.7L900 253L900 301L888.5 301C877 301 854 301 831 301C808 301 785 301 761.8 301C738.7 301 715.3 301 692.2 301C669 301 646 301 623 301C600 301 577 301 554 301C531 301 508 301 484.8 301C461.7 301 438.3 301 415.2 301C392 301 369 301 346 301C323 301 300 301 277 301C254 301 231 301 207.8 301C184.7 301 161.3 301 138.2 301C115 301 92 301 69 301C46 301 23 301 11.5 301L0 301Z" fill="#f0b8c6"></path><path d="M0 275L11.5 273.8C23 272.7 46 270.3 69 269.8C92 269.3 115 270.7 138.2 272.2C161.3 273.7 184.7 275.3 207.8 275.2C231 275 254 273 277 269.8C300 266.7 323 262.3 346 264.2C369 266 392 274 415.2 276C438.3 278 461.7 274 484.8 272.5C508 271 531 272 554 271C577 270 600 267 623 268C646 269 669 274 692.2 273C715.3 272 738.7 265 761.8 262.2C785 259.3 808 260.7 831 263.8C854 267 877 272 888.5 274.5L900 277L900 301L888.5 301C877 301 854 301 831 301C808 301 785 301 761.8 301C738.7 301 715.3 301 692.2 301C669 301 646 301 623 301C600 301 577 301 554 301C531 301 508 301 484.8 301C461.7 301 438.3 301 415.2 301C392 301 369 301 346 301C323 301 300 301 277 301C254 301 231 301 207.8 301C184.7 301 161.3 301 138.2 301C115 301 92 301 69 301C46 301 23 301 11.5 301L0 301Z" fill="#f7caca"></path></svg>