<svg id="visual" viewBox="0 0 450 900" width="450" height="900" xmlns="http://www.w3.org/2000/svg" xmlns:xlink="http://www.w3.org/1999/xlink" version="1.1"><rect x="0" y="0" width="450" height="900" fill="#285f89"></rect><defs><linearGradient id="grad1_0" x1="0%" y1="0%" x2="100%" y2="100%"><stop offset="30%" stop-color="#3cfacc" stop-opacity="1"></stop><stop offset="70%" stop-color="#3cfacc" stop-opacity="1"></stop></linearGradient></defs><defs><linearGradient id="grad1_1" x1="0%" y1="0%" x2="100%" y2="100%"><stop offset="30%" stop-color="#3cfacc" stop-opacity="1"></stop><stop offset="70%" stop-color="#285f89" stop-opacity="1"></stop></linearGradient></defs><defs><linearGradient id="grad2_0" x1="0%" y1="0%" x2="100%" y2="100%"><stop offset="30%" stop-color="#3cfacc" stop-opacity="1"></stop><stop offset="70%" stop-color="#3cfacc" stop-opacity="1"></stop></linearGradient></defs><defs><linearGradient id="grad2_1" x1="0%" y1="0%" x2="100%" y2="100%"><stop offset="30%" stop-color="#285f89" stop-opacity="1"></stop><stop offset="70%" stop-color="#3cfacc" stop-opacity="1"></stop></linearGradient></defs><g transform="translate(450, 0)"><path d="M0 405C-40 371 -80.1 336.9 -133.9 323.4C-187.8 309.8 -255.4 316.7 -286.4 286.4C-317.3 256.1 -311.6 188.6 -325.2 134.7C-338.9 80.8 -371.9 40.4 -405 0L0 0Z" fill="#00acc7"></path><path d="M0 202.5C-20 185.5 -40 168.5 -67 161.7C-93.9 154.9 -127.7 158.3 -143.2 143.2C-158.7 128 -155.8 94.3 -162.6 67.4C-169.4 40.4 -186 20.2 -202.5 0L0 0Z" fill="#3cfacc"></path></g><g transform="translate(0, 900)"><path d="M0 -405C40.8 -371.3 81.5 -337.5 133.9 -323.4C186.3 -309.2 250.4 -314.6 286.4 -286.4C322.4 -258.2 330.4 -196.4 345.5 -143.1C360.6 -89.8 382.8 -44.9 405 0L0 0Z" fill="#00acc7"></path><path d="M0 -202.5C20.4 -185.6 40.8 -168.8 67 -161.7C93.2 -154.6 125.2 -157.3 143.2 -143.2C161.2 -129.1 165.2 -98.2 172.8 -71.6C180.3 -44.9 191.4 -22.4 202.5 0L0 0Z" fill="#3cfacc"></path></g></svg>